<?xml version="1.0" encoding="utf-8"?>
<!-- Generator: Adobe Illustrator 17.1.0, SVG Export Plug-In . SVG Version: 6.00 Build 0)  -->
<!DOCTYPE svg PUBLIC "-//W3C//DTD SVG 1.1//EN" "http://www.w3.org/Graphics/SVG/1.1/DTD/svg11.dtd">
<svg version="1.1" id="Layer_1" xmlns="http://www.w3.org/2000/svg" xmlns:xlink="http://www.w3.org/1999/xlink" x="0px" y="0px"
	 viewBox="0 0 711 259.8" enable-background="new 0 0 711 259.8" xml:space="preserve">
<g>
	<path fill="#FFFFFF" d="M104.6,256.3c-15.5-1.5-32.2-3.5-47.5-5.2c-17.5-3-31.8-8.8-43.1-17.5c-4.9-3.8-8.5-8-10.7-12.5
		c-2.2-4.6-3.4-9.7-3.4-15.4c0-15.1,7.3-29.8,22-44.2c14.7-14.4,29.6-21.7,44.7-21.7c6.4,0,12.1,1.4,17.1,4.2
		c5,2.7,9.4,7.2,13.2,13.3c3,5.1,4.5,10.1,4.5,14.9c0,8.5-4.5,15.6-13.6,21.3c-9.1,5.7-19,8.6-29.8,8.6c-2.5,0-5.3-0.1-8.1-0.4
		c-2.9-0.3-6.5-0.6-11-1.2c-3.2,0-5.8,0.7-7.8,2.2c-2,1.5-3.4,4.4-4.3,8.9c-1.5,7.4,3.2,13.3,14,17.8c4.7,1.9,9.8,3.5,15.5,4.8
		c5.6,1.3,10.3,2.5,13.9,3.8c7.9,3,15.7,5.8,23.6,8.6c2.8,0.8,5.3,3.4,6.8,3.7C102.1,250.4,104,255.7,104.6,256.3z M81.1,166.8
		c-2.3-4.6-5.6-6.9-9.9-6.9c-4.3,0-9,2.3-14.4,7c-4.5,3.8-8.1,8.1-10.9,12.8c2.1,1.2,5.6,2.4,10.5,3.4c4.9,1.1,9.3,1.7,13.1,1.7
		c4.2,0,7.7-0.7,10.4-2.2c2.7-1.5,4-3.8,4-6.9C83.9,173.3,83,170.4,81.1,166.8z"/>
	<path fill="#FFFFFF" d="M711,259.8c-15.6-0.3-32.4-1-47.8-1.5c-17.6-1.6-32.4-6.3-44.3-14.1c-5.2-3.4-9.1-7.3-11.6-11.7
		c-2.6-4.4-4.1-9.4-4.6-15.1c-1.2-15,5-30.3,18.5-45.8c13.5-15.5,27.8-23.9,42.9-25c6.4-0.5,12.2,0.4,17.4,2.8
		c5.2,2.4,9.9,6.4,14.2,12.3c3.4,4.8,5.2,9.7,5.6,14.5c0.7,8.4-3.3,15.9-11.9,22.3c-8.6,6.4-18.3,10-29.1,10.9
		c-2.5,0.2-5.3,0.3-8.1,0.2c-2.9,0-6.6-0.2-11.1-0.4c-3.2,0.3-5.7,1.2-7.6,2.8c-1.9,1.6-3.1,4.7-3.6,9.2c-0.9,7.5,4.2,13,15.4,16.6
		c4.8,1.5,10.1,2.7,15.8,3.5c5.7,0.8,10.4,1.7,14.1,2.7c0,0,28.8,5.5,34.5,12.3L711,259.8z M680.5,172.4c-2.7-4.4-6.2-6.5-10.4-6.1
		c-4.3,0.3-8.8,3-13.8,8.1c-4.2,4.1-7.5,8.7-9.8,13.6c2.2,1,5.8,1.9,10.8,2.6c5,0.7,9.3,0.9,13.2,0.6c4.2-0.3,7.6-1.3,10.1-3
		c2.5-1.7,3.7-4.1,3.5-7.2C683.9,178.7,682.7,175.8,680.5,172.4z"/>
	<path fill="#FFFFFF" d="M291.1,96.4c3.2-2.8,6.7-7,10.5-12.8c3-4.5,8-13,15-25.5c8.3-15.1,15.5-26.6,21.7-34.5
		C350.7,7.9,362,0,372.2,0c3.8,0,7.7,1.3,11.5,3.8c5.5,3.8,8.3,11.1,8.3,21.7c0,9.8-2.5,23.3-7.6,40.5c-3.4,11.3-6.8,22.5-10.2,33.5
		c-2.1,8.9-6.6,24.4-13.4,46.6c-10.2,33-15.3,58.9-15.3,77.9c0,1.5,0,4,0,7.6c0,3.6,0,5.5,0,5.7c0,4.5-0.7,8.1-2.2,10.9
		c-1.5,2.8-4.1,4.2-7.8,4.5c-7.3,1.1-12.5-3.3-15.6-13.1c-2.1-6.6-3.1-15-3.1-25.2c0-15.9,3.3-34.8,9.9-56.5
		c5.9-18.5,12.2-38,18.7-58.6c6.5-20.5,9.7-38.6,9.7-54.1c-8.7,12.1-19.5,28.8-32.2,50.1c-18.3,30.2-28.6,47.2-30.9,51.1
		c-12.6,20.4-23.4,36.7-32.6,48.8c-3.8,5.3-6.5,8.7-8,10.2c-3.2,3.4-6.5,5.1-9.9,5.1c-2.6,0-5.2-0.9-7.8-2.6
		c-2.7-1.7-4.6-3.8-5.9-6.4c-1.3-2.5-1.9-5.3-1.9-8.3c0-3.8,1.1-8.9,3.2-15.3c3-9.3,4.6-14.2,4.8-14.7c1.5-6,5-18.1,10.5-36.4
		c7.9-26.2,11.8-47,11.8-62.5c-9.2,3.8-18.5,12.6-28.1,26.4c-4.3,6.2-8.7,13.3-13.4,21.4c-3,5.1-10.5,17.1-22.7,36
		c-16.6,25.9-28.2,46.8-34.8,62.7c-3.4,8.7-6.7,17.4-9.9,26.1c-5.3,11.9-10.7,17.9-16.3,17.9c-3.8,0-7.9-3-12.1-8.9
		c-1.5-2.1-2.2-4.3-2.2-6.7c0-2.8,1-6.1,2.9-10c1.9-3.9,3.8-7.9,5.8-12c8.5-18.1,17-36.1,25.5-54.1c1.1-3.6,3.6-11.1,7.7-22.3
		c5.7-16.1,9.5-28.9,11.3-38.4c1.8-9.5,3.7-15.5,5.6-18.3c1.9-2.7,6.1-4.1,12.4-4.1c3.2,0.2,6.3,0.3,9.3,0.3
		c6.8,0,13.4-3.8,19.8-11.5c16.6-20.2,27.6-31.3,33-33.4c5.4-2,10.2-3,14.2-3c8.3,0,13.8,4.5,16.6,13.4c1.9,6,2.9,15.5,2.9,28.7
		c0,5.3,0.1,10.5,0.2,15.6c0.1,5.1,0.5,9.3,1.1,12.4L291.1,96.4z"/>
	<path fill="#FFFFFF" d="M412.3,247.8c-5.3-0.5-15.6-4.5-20.5-6.8c-8.1-3.6-14.2-13-17.7-19.9c-3.5-6.9-5.3-14.9-5.3-23.8
		c0-4.2,0.2-7.5,0.5-9.9c0.3-2.3,1.3-7.1,3-14.4c2.6-10,5.8-17.5,9.6-22.5c3.8-5,9-7.5,15.6-7.5c4.9,0,10.3,1.5,16.3,4.5
		c-4.9,12.5-8.3,21.6-10.2,27.1c-3.2,9.3-4.8,17.9-4.8,25.5c0,5.7,0.7,11.6,2.2,17.5c0,0,20.4,23.9,48.9,1.1
		c28.5-22.8,18.2-63.3,18.2-63.3s10.2-7.4,12.5-5.7c2.3,1.7,17.7-1.2,16.5,30.8c-1.1,31.9-18.8,62.7-50.7,65.5
		C436.3,249.5,412.3,247.8,412.3,247.8z"/>
	<path fill="#FFFFFF" d="M476.7,247c11.6-1.6,70.9-11.2,73.8-28.3c1.5-8.9-14.2-18.8-14.2-18.8c-6.4-7.7-12.3-12.8-15.5-18.8
		c-3.2-6-4.8-10.9-4.8-14.5c0-10,5.2-17.6,15.6-22.8c10.4-5.2,22.4-7.8,35.8-7.8c11.3,0,19.7,1.7,25.4,5.2c5.6,3.4,8.5,6.1,8.5,8
		c0,1.1-0.7,3.5-2.2,7.5c-1.9,3.9-3.7,6.6-5.4,8c-1.7,1.4-3.7,2-6.1,2c-4.3,0-7.9,0-10.8,0c-4.1,0.9-22.1-4.3-31.8-2
		c-9.7,2.3,4.6,12.5,4.6,12.5c2.6,3.2,14.3,7.6,25.3,15.3c8.5,5.7,12.8,11.5,12.8,17.2c0,4.3,0.2,15.1-2.8,20.4
		c-4.7,8.1-12.8,12.9-22.8,18.2c-8.9,4.7-39.7,9.8-50.1,10.8c-19.4,1.2-30.9-6.4-30.9-6.4C480,251.3,478.6,249.3,476.7,247"/>
</g>
</svg>
